<?xml version="1.0" encoding="UTF-8"?>
<svg id="Capa_1" data-name="Capa 1" xmlns="http://www.w3.org/2000/svg" viewBox="0 0 225.95 105.37">
  <defs>
    <style>
      .cls-1 {
        fill: none;
        stroke: #1a1413;
        stroke-miterlimit: 10;
        stroke-width: .25px;
      }

      .cls-2 {
        fill: #646363;
      }

      .cls-2, .cls-3 {
        stroke-width: 0px;
      }

      .cls-3 {
        fill: #1d1d1b;
      }
    </style>
  </defs>
  <path class="cls-3" d="m6.9,31.26c2.35-1.45,16.85-4.3,33.71,6.02-4.7,7.91-4.99,11.71-4.99,11.71,0,0-7.28-16.52-28.72-17.73"/>
  <path class="cls-3" d="m35.25,71.5s9.46,6.88,11.87,8.6c-2.92-45.57,13.93-58.13,14.1-58.99-25.97,12.04-25.97,50.39-25.97,50.39"/>
  <g>
    <g>
      <path class="cls-3" d="m95.62,31.77c0,.45-.74,1.75-2.22,3.9-2.09,3.04-3.46,5.11-4.1,6.21-1.48,2.52-2.22,4.43-2.22,5.74,0,2.48.08,5.03.25,7.65h-3.47c.16-2.49.23-5.06.23-7.69,0-1.44-.69-3.45-2.08-6.01-.78-1.43-2.08-3.5-3.88-6.21-1.38-2.09-2.08-3.29-2.08-3.59h3.7c0,.31,1.04,2.23,3.11,5.75s3.11,5.85,3.11,6.98h.18c0-1.14.99-3.43,2.97-6.86s2.97-5.39,2.97-5.87h3.5Z"/>
      <path class="cls-3" d="m115.26,37.6c0,2.74-1.04,4.8-3.12,6.16-2.08,1.36-4.88,2.04-8.39,2.04-.44,0-.83-.01-1.15-.04,0,2.62.1,5.79.29,9.51h-3.47c.18-3.42.27-7.53.27-12.35,0-4.14-.09-7.86-.27-11.16h2.58c.28,0,1.07-.02,2.37-.05,1.31-.04,2.42-.05,3.33-.05,2.31,0,4.15.53,5.52,1.58,1.37,1.05,2.05,2.51,2.05,4.36Zm-3.01,1.05c0-3.09-2.11-4.64-6.34-4.64-1.04,0-2.2.09-3.48.27.08,1.96.13,5.02.13,9.17.42.02.94.04,1.55.04,5.43,0,8.14-1.61,8.14-4.84Z"/>
      <path class="cls-3" d="m133.57,49.19c0,4.45-3.1,6.68-9.3,6.68-2.26,0-4.27-.26-6.03-.78l.63-2.83c2.02.7,3.94,1.05,5.76,1.05,4.09,0,6.14-1.16,6.14-3.47,0-1.17-.53-2.17-1.59-3-.71-.55-2.11-1.29-4.19-2.22-2.19-.97-3.72-1.87-4.6-2.69-1.22-1.13-1.82-2.55-1.82-4.26s.62-3.23,1.86-4.35c1.38-1.25,3.34-1.88,5.87-1.88,2.86,0,4.83.19,5.89.56l-.43,2.87c-1.83-.58-3.77-.87-5.83-.87-3.09,0-4.64,1.04-4.64,3.11,0,1,.45,1.83,1.34,2.51.58.42,1.85,1.06,3.83,1.91,2.25.97,3.88,1.9,4.87,2.78,1.5,1.32,2.26,2.95,2.26,4.87Z"/>
      <path class="cls-3" d="m142.18,55.27h-3.43c.18-3.9.27-8.02.27-12.35s-.09-7.98-.27-11.16h3.43c-.17,3.29-.25,7-.25,11.16,0,4.36.08,8.47.25,12.35Z"/>
      <path class="cls-3" d="m163.28,52.62l-.11,2.65h-14.21c.14-2.97.22-7.09.22-12.35,0-4.53-.07-8.24-.22-11.16h3.36c-.14,2.43-.22,6.15-.22,11.16,0,4.12-.07,7.41-.2,9.89,3.61,0,7.4-.07,11.37-.2Z"/>
      <path class="cls-3" d="m187.55,43.16c0,3.89-1.14,7-3.41,9.32-2.27,2.33-4.9,3.49-7.89,3.49s-5.38-1.07-7.54-3.2c-2.16-2.14-3.24-5.02-3.24-8.66,0-3.94,1.14-7.06,3.41-9.36,2.27-2.3,4.9-3.46,7.89-3.46s5.38,1.07,7.54,3.2c2.16,2.14,3.24,5.02,3.24,8.66Zm-3.21.41c0-3.1-.82-5.51-2.45-7.21-1.63-1.7-3.51-2.55-5.64-2.55-1.97,0-3.73.9-5.27,2.69-1.54,1.79-2.31,4.19-2.31,7.18s.82,5.53,2.46,7.23c1.64,1.7,3.52,2.55,5.64,2.55,1.97,0,3.73-.91,5.26-2.73,1.53-1.82,2.3-4.21,2.3-7.17Z"/>
      <path class="cls-3" d="m210.85,55.27h-2.53c0-.2-1.97-3.09-5.92-8.65-4.13-5.84-6.48-9.52-7.06-11.05h-.18c.22,2.9.33,5.39.33,7.46,0,4.04.09,8.12.27,12.24h-3.03c.2-3.91.31-8.03.31-12.35s-.1-7.97-.31-11.16h3.47c0,.34,1.82,3.08,5.45,8.23,3.8,5.42,5.97,8.94,6.5,10.58h.18c-.2-2.94-.31-5.43-.31-7.47,0-4.45-.08-8.23-.25-11.34h3.09c-.21,3.19-.31,6.91-.31,11.16s.1,8.44.31,12.35Z"/>
    </g>
    <path class="cls-1" d="m92.12,31.77c0,.48-.99,2.44-2.97,5.87-1.98,3.43-2.97,5.72-2.97,6.86h-.18c0-1.13-1.04-3.46-3.11-6.98-2.08-3.52-3.11-5.44-3.11-5.75h-3.7c0,.3.69,1.5,2.08,3.59,1.81,2.71,3.1,4.78,3.88,6.21,1.38,2.56,2.08,4.57,2.08,6.01,0,2.63-.08,5.2-.23,7.69h3.47c-.17-2.62-.25-5.17-.25-7.66,0-1.31.74-3.22,2.22-5.74.64-1.1,2-3.17,4.1-6.21,1.48-2.15,2.22-3.45,2.22-3.9h-3.5Z"/>
    <path class="cls-1" d="m104.11,43.49c-.61,0-1.13-.01-1.55-.04,0-4.15-.04-7.21-.13-9.17,1.29-.18,2.45-.27,3.48-.27,4.22,0,6.34,1.55,6.34,4.64s-2.72,4.84-8.14,4.84Zm9.11-10.24c-1.37-1.05-3.2-1.58-5.51-1.58-.92,0-2.03.02-3.33.05-1.31.04-2.1.05-2.37.05h-2.58c.18,3.3.27,7.02.27,11.16,0,4.81-.09,8.93-.27,12.35h3.47c-.19-3.72-.29-6.89-.29-9.51.33.03.71.04,1.16.04,3.51,0,6.31-.68,8.39-2.04,2.08-1.36,3.12-3.41,3.12-6.16,0-1.85-.68-3.31-2.05-4.36Z"/>
    <path class="cls-1" d="m131.31,44.32c-1-.88-2.62-1.81-4.88-2.78-1.97-.85-3.25-1.49-3.83-1.91-.89-.67-1.34-1.51-1.34-2.51,0-2.07,1.55-3.11,4.64-3.11,2.06,0,4,.29,5.83.87l.43-2.87c-1.06-.37-3.02-.56-5.89-.56-2.53,0-4.48.62-5.87,1.88-1.24,1.12-1.86,2.57-1.86,4.35s.61,3.13,1.82,4.26c.88.82,2.41,1.72,4.6,2.69,2.08.93,3.48,1.67,4.19,2.22,1.06.83,1.59,1.83,1.59,3,0,2.31-2.05,3.47-6.14,3.47-1.82,0-3.74-.35-5.76-1.05l-.63,2.83c1.76.52,3.76.78,6.03.78,6.2,0,9.3-2.23,9.3-6.68,0-1.93-.75-3.55-2.26-4.88Z"/>
    <path class="cls-1" d="m141.93,42.93c0-4.15.08-7.87.25-11.16h-3.43c.18,3.18.27,6.9.27,11.16s-.09,8.45-.27,12.35h3.43c-.17-3.88-.25-7.99-.25-12.35Z"/>
    <path class="cls-1" d="m151.91,52.82c.13-2.48.2-5.78.2-9.89,0-5.01.07-8.73.22-11.16h-3.36c.14,2.91.22,6.63.22,11.16,0,5.26-.07,9.38-.22,12.35h14.21l.11-2.65c-3.97.13-7.76.2-11.37.2Z"/>
    <path class="cls-1" d="m182.03,50.74c-1.54,1.82-3.29,2.73-5.26,2.73-2.12,0-4-.85-5.64-2.55-1.64-1.7-2.46-4.11-2.46-7.23s.77-5.39,2.31-7.19c1.54-1.79,3.3-2.69,5.27-2.69,2.13,0,4.01.85,5.64,2.55,1.63,1.7,2.45,4.11,2.45,7.21s-.77,5.35-2.3,7.17Zm2.27-16.24c-2.16-2.14-4.67-3.2-7.54-3.2s-5.61,1.15-7.89,3.46c-2.27,2.3-3.41,5.42-3.41,9.36,0,3.64,1.08,6.52,3.24,8.66,2.16,2.14,4.67,3.2,7.54,3.2s5.61-1.17,7.89-3.49c2.28-2.33,3.41-5.44,3.41-9.32,0-3.64-1.08-6.52-3.24-8.66Z"/>
  </g>
  <g>
    <path class="cls-2" d="m84.65,72.99h-1.55c.08-1.77.12-3.63.12-5.59s-.04-3.61-.12-5.05h1.55c-.08,1.49-.11,3.17-.11,5.05,0,1.97.04,3.84.11,5.59Z"/>
    <path class="cls-2" d="m94.19,72.99h-1.49c.12-1.43.18-3,.18-4.69,0-.84-.17-1.41-.51-1.72-.34-.31-.83-.46-1.46-.46-.77,0-1.49.28-2.14.84,0,1.86.01,3.87.03,6.03h-1.49c.09-1.85.14-3.19.14-4.02,0-1.28-.12-2.51-.36-3.71l1.44-.2.16,1h.07c.81-.73,1.67-1.1,2.59-1.1s1.6.2,2.1.6c.5.4.74,1.11.74,2.14,0,.1,0,.31-.02.61-.01.31-.02.51-.02.61,0,.91.01,2.27.03,4.07Z"/>
    <path class="cls-2" d="m100.81,71.87l-.1,1.06c-.43.16-.84.24-1.22.24-.98,0-1.65-.25-2.01-.75-.36-.5-.54-1.39-.54-2.68,0-.83,0-1.92.02-3.26-.31,0-.75.02-1.35.05l.05-1.19c.52.03.98.05,1.39.05,0-.33.03-1.1.08-2.33l1.28-.13c-.09,1.14-.14,1.96-.14,2.46.53,0,1.32-.03,2.35-.08l-.06,1.22c-.98-.03-1.77-.05-2.36-.05-.01.82-.02,1.75-.02,2.78,0,1.12.12,1.87.36,2.23.24.36.68.54,1.32.54.21,0,.53-.05.94-.16Z"/>
    <path class="cls-2" d="m109.04,68.2c0,.23-.01.54-.03.95l-5.62.1c.05.8.36,1.46.92,2,.56.54,1.31.81,2.23.81.83,0,1.6-.1,2.33-.3l-.14,1.15c-.53.21-1.31.32-2.31.32-1.42,0-2.5-.39-3.24-1.16-.74-.77-1.12-1.72-1.12-2.83,0-1.19.34-2.21,1.02-3.07s1.59-1.29,2.73-1.29c1.05,0,1.85.31,2.4.93.55.62.82,1.42.82,2.4Zm-1.37.02c0-1.53-.64-2.3-1.92-2.3s-2.08.8-2.31,2.39l4.23-.09Z"/>
    <path class="cls-2" d="m112.51,72.99h-1.57c.1-1.8.15-3.83.15-6.1s-.08-4-.24-5.4l1.66-.08c-.1,1.48-.16,3.31-.16,5.49s.05,4.27.16,6.1Z"/>
    <path class="cls-2" d="m116.24,72.99h-1.48c.08-1.09.11-2.34.11-3.74,0-1.58-.1-2.9-.29-3.97l1.64-.22c-.07,1.14-.1,2.53-.1,4.19,0,1.31.04,2.55.11,3.74Zm.34-10.22c0,.28-.09.52-.27.72-.18.2-.43.31-.76.31-.28,0-.49-.09-.65-.27-.16-.18-.23-.39-.23-.64,0-.27.09-.51.28-.71.19-.2.44-.3.77-.3.27,0,.48.09.63.27.16.18.23.39.23.63Z"/>
    <path class="cls-2" d="m126.1,64.2l-.13,1.13c-1.01,0-1.57.16-1.68.49v.08c.35.43.52.91.52,1.46,0,.85-.28,1.55-.84,2.1-.56.55-1.42.83-2.59.83-.52,0-.93-.05-1.23-.16-.27.19-.4.43-.4.71,0,.35.16.58.47.69.4.15,1.25.23,2.53.23,2.07,0,3.11.69,3.11,2.06,0,.98-.4,1.79-1.21,2.44-.81.64-1.85.96-3.13.96s-2.25-.24-2.81-.72c-.56-.48-.84-1.05-.84-1.72,0-.61.14-1.1.41-1.47.27-.37.62-.6,1.03-.69v-.07c-.43-.21-.65-.6-.65-1.19,0-.53.27-1,.82-1.41v-.07c-.29-.14-.56-.38-.83-.72-.26-.34-.39-.76-.39-1.26,0-.87.29-1.57.86-2.12.57-.55,1.4-.82,2.48-.82.89,0,1.59.16,2.09.48h.09c.17-.92.63-1.38,1.37-1.38.4,0,.71.04.93.12Zm-1.46,10.18c0-.51-.19-.87-.56-1.08-.37-.21-1.07-.31-2.1-.31-.7,0-1.34-.03-1.91-.1-.67.32-1,.79-1,1.41,0,1.33.87,1.99,2.62,1.99.91,0,1.63-.18,2.16-.53.53-.35.8-.81.8-1.38Zm-1.14-6.69c0-.6-.19-1.06-.57-1.38-.38-.32-.86-.48-1.44-.48-.55,0-1.01.15-1.38.46-.37.31-.56.75-.56,1.31s.19,1.05.57,1.36c.38.31.87.47,1.46.47.54,0,1-.15,1.37-.45.37-.3.55-.73.55-1.29Z"/>
    <path class="cls-2" d="m134.15,68.2c0,.23-.01.54-.03.95l-5.62.1c.05.8.36,1.46.92,2,.56.54,1.31.81,2.23.81.83,0,1.6-.1,2.33-.3l-.14,1.15c-.53.21-1.31.32-2.31.32-1.42,0-2.5-.39-3.24-1.16-.74-.77-1.12-1.72-1.12-2.83,0-1.19.34-2.21,1.02-3.07.68-.86,1.59-1.29,2.73-1.29,1.05,0,1.85.31,2.4.93.55.62.82,1.42.82,2.4Zm-1.37.02c0-1.53-.64-2.3-1.92-2.3s-2.08.8-2.31,2.39l4.23-.09Z"/>
    <path class="cls-2" d="m142.96,72.99h-1.49c.12-1.43.18-3,.18-4.69,0-.84-.17-1.41-.51-1.72-.34-.31-.83-.46-1.46-.46-.77,0-1.49.28-2.14.84,0,1.86.01,3.87.03,6.03h-1.49c.09-1.85.14-3.19.14-4.02,0-1.28-.12-2.51-.36-3.71l1.44-.2.16,1h.07c.81-.73,1.67-1.1,2.59-1.1s1.6.2,2.1.6c.5.4.74,1.11.74,2.14,0,.1,0,.31-.02.61-.01.31-.02.51-.02.61,0,.91.01,2.27.03,4.07Z"/>
    <path class="cls-2" d="m151.05,71.74l-.08,1.1c-.44.25-1.03.38-1.77.38-1.41,0-2.49-.39-3.24-1.17-.75-.78-1.12-1.72-1.12-2.82,0-1.17.39-2.17,1.18-3.01.79-.84,1.82-1.26,3.11-1.26.65,0,1.18.07,1.59.2l-.22,1.28c-.57-.21-1.15-.32-1.74-.32-.77,0-1.39.27-1.85.81-.46.54-.69,1.22-.69,2.03,0,.88.27,1.62.82,2.21.54.59,1.32.88,2.31.88.41,0,.98-.1,1.7-.3Z"/>
    <path class="cls-2" d="m154.14,72.99h-1.48c.08-1.09.11-2.34.11-3.74,0-1.58-.1-2.9-.29-3.97l1.64-.22c-.07,1.14-.1,2.53-.1,4.19,0,1.31.04,2.55.11,3.74Zm.34-10.22c0,.28-.09.52-.27.72-.18.2-.43.31-.76.31-.28,0-.49-.09-.65-.27-.16-.18-.23-.39-.23-.64,0-.27.09-.51.28-.71.19-.2.44-.3.77-.3.27,0,.48.09.63.27.16.18.23.39.23.63Z"/>
    <path class="cls-2" d="m162.45,72.99l-1.28.05c-.07-.27-.1-.52-.1-.76h-.08c-.67.61-1.58.92-2.74.92-.63,0-1.17-.18-1.62-.55-.45-.37-.68-.89-.68-1.57,0-.84.35-1.51,1.06-2.02.71-.51,2.02-.78,3.95-.81.02-.13.02-.28.02-.45,0-.67-.18-1.12-.54-1.34-.36-.22-.9-.34-1.62-.34-.86,0-1.7.11-2.53.32l.14-1.13c.82-.23,1.76-.35,2.82-.35.97,0,1.72.2,2.25.6.53.4.79,1.08.79,2.05,0,.26-.01.72-.04,1.39-.02.67-.04,1.12-.04,1.34,0,.99.07,1.88.22,2.65Zm-1.45-1.59c-.03-.83-.04-1.57-.04-2.23-1.02,0-1.8.08-2.34.23-.89.27-1.34.79-1.34,1.56s.52,1.11,1.57,1.11c.9,0,1.62-.22,2.15-.67Z"/>
    <path class="cls-2" d="m177.03,67.29c0,1.55-.49,2.9-1.48,4.07-.99,1.17-2.35,1.75-4.09,1.75-.57,0-1.51-.04-2.84-.11.08-1.69.12-3.55.12-5.59,0-1.92-.04-3.6-.12-5.05h.9c.22,0,.55,0,1-.02.45-.02.74-.02.88-.02,1.92,0,3.34.47,4.26,1.42.92.95,1.37,2.13,1.37,3.57Zm-1.42.37c0-1.21-.39-2.22-1.16-3.03-.77-.81-1.96-1.22-3.58-1.22-.23,0-.54.03-.94.08.04,1.27.07,2.58.07,3.92,0,1.47.03,2.96.09,4.48.44.09.86.13,1.26.13,1.44,0,2.51-.43,3.21-1.28.7-.85,1.05-1.88,1.05-3.08Z"/>
    <path class="cls-2" d="m180.39,72.99h-1.48c.08-1.09.11-2.34.11-3.74,0-1.58-.1-2.9-.29-3.97l1.64-.22c-.07,1.14-.1,2.53-.1,4.19,0,1.31.04,2.55.11,3.74Zm.34-10.22c0,.28-.09.52-.27.72-.18.2-.43.31-.76.31-.28,0-.49-.09-.65-.27-.16-.18-.23-.39-.23-.64,0-.27.09-.51.28-.71.19-.2.44-.3.77-.3.27,0,.48.09.63.27.16.18.23.39.23.63Z"/>
    <path class="cls-2" d="m190.25,64.2l-.13,1.13c-1.01,0-1.57.16-1.68.49v.08c.35.43.52.91.52,1.46,0,.85-.28,1.55-.84,2.1-.56.55-1.42.83-2.59.83-.52,0-.93-.05-1.23-.16-.27.19-.4.43-.4.71,0,.35.16.58.47.69.4.15,1.25.23,2.53.23,2.07,0,3.11.69,3.11,2.06,0,.98-.4,1.79-1.21,2.44-.81.64-1.85.96-3.13.96s-2.25-.24-2.81-.72c-.56-.48-.84-1.05-.84-1.72,0-.61.14-1.1.41-1.47.27-.37.62-.6,1.03-.69v-.07c-.43-.21-.65-.6-.65-1.19,0-.53.27-1,.82-1.41v-.07c-.29-.14-.56-.38-.83-.72-.26-.34-.39-.76-.39-1.26,0-.87.29-1.57.86-2.12.57-.55,1.4-.82,2.48-.82.89,0,1.59.16,2.09.48h.09c.17-.92.63-1.38,1.37-1.38.4,0,.71.04.93.12Zm-1.46,10.18c0-.51-.19-.87-.56-1.08-.37-.21-1.07-.31-2.1-.31-.7,0-1.34-.03-1.91-.1-.67.32-1,.79-1,1.41,0,1.33.87,1.99,2.62,1.99.91,0,1.63-.18,2.16-.53.53-.35.8-.81.8-1.38Zm-1.14-6.69c0-.6-.19-1.06-.57-1.38-.38-.32-.86-.48-1.44-.48-.55,0-1.01.15-1.38.46-.37.31-.56.75-.56,1.31s.19,1.05.57,1.36c.38.31.87.47,1.46.47.54,0,1-.15,1.37-.45.37-.3.55-.73.55-1.29Z"/>
    <path class="cls-2" d="m193.07,72.99h-1.48c.08-1.09.11-2.34.11-3.74,0-1.58-.1-2.9-.29-3.97l1.64-.22c-.07,1.14-.1,2.53-.1,4.19,0,1.31.04,2.55.11,3.74Zm.34-10.22c0,.28-.09.52-.27.72-.18.2-.43.31-.76.31-.28,0-.49-.09-.65-.27-.16-.18-.23-.39-.23-.64,0-.27.09-.51.28-.71s.44-.3.77-.3c.27,0,.48.09.63.27.16.18.23.39.23.63Z"/>
    <path class="cls-2" d="m199.72,71.87l-.1,1.06c-.43.16-.84.24-1.22.24-.98,0-1.65-.25-2.01-.75-.36-.5-.54-1.39-.54-2.68,0-.83,0-1.92.02-3.26-.31,0-.75.02-1.35.05l.05-1.19c.52.03.98.05,1.39.05,0-.33.03-1.1.08-2.33l1.28-.13c-.09,1.14-.14,1.96-.14,2.46.53,0,1.32-.03,2.35-.08l-.06,1.22c-.98-.03-1.77-.05-2.36-.05-.01.82-.02,1.75-.02,2.78,0,1.12.12,1.87.36,2.23.24.36.68.54,1.32.54.21,0,.53-.05.94-.16Z"/>
    <path class="cls-2" d="m207.39,72.99l-1.28.05c-.07-.27-.1-.52-.1-.76h-.08c-.67.61-1.58.92-2.74.92-.63,0-1.17-.18-1.62-.55-.45-.37-.68-.89-.68-1.57,0-.84.35-1.51,1.06-2.02.71-.51,2.02-.78,3.95-.81.02-.13.02-.28.02-.45,0-.67-.18-1.12-.54-1.34-.36-.22-.9-.34-1.62-.34-.86,0-1.7.11-2.53.32l.14-1.13c.82-.23,1.76-.35,2.82-.35.97,0,1.72.2,2.25.6.53.4.79,1.08.79,2.05,0,.26-.01.72-.04,1.39-.02.67-.04,1.12-.04,1.34,0,.99.07,1.88.22,2.65Zm-1.45-1.59c-.03-.83-.04-1.57-.04-2.23-1.02,0-1.8.08-2.34.23-.89.27-1.34.79-1.34,1.56s.52,1.11,1.57,1.11c.9,0,1.62-.22,2.15-.67Z"/>
    <path class="cls-2" d="m211.04,72.99h-1.57c.1-1.8.15-3.83.15-6.1s-.08-4-.24-5.4l1.66-.08c-.1,1.48-.16,3.31-.16,5.49s.05,4.27.16,6.1Z"/>
  </g>
</svg>